<svg class="main-svg" xmlns="http://www.w3.org/2000/svg" xmlns:xlink="http://www.w3.org/1999/xlink" width="700" height="500" style="" viewBox="0 0 700 500"><rect x="0" y="0" width="700" height="500" style="fill: rgb(255, 255, 255); fill-opacity: 1;"/><defs id="defs-0b0e27"><g class="clips"><clipPath id="clip0b0e27xyplot" class="plotclip"><rect width="458.75457494896466" height="337.6353346456693"/></clipPath><clipPath class="axesclip" id="clip0b0e27x"><rect x="104.85303659959172" y="0" width="458.75457494896466" height="500"/></clipPath><clipPath class="axesclip" id="clip0b0e27y"><rect x="0" y="82.79691601049865" width="700" height="337.6353346456693"/></clipPath><clipPath class="axesclip" id="clip0b0e27xy"><rect x="104.85303659959172" y="82.79691601049865" width="458.75457494896466" height="337.6353346456693"/></clipPath></g><g class="gradients"/></defs><g class="bglayer"/><g class="layer-below"><g class="imagelayer"/><g class="shapelayer"/></g><g class="cartesianlayer"><g class="subplot xy"><g class="layer-subplot"><g class="shapelayer"/><g class="imagelayer"/></g><g class="gridlayer"><g class="x"><path class="xgrid crisp" transform="translate(161.1130365995917,0)" d="M0,82.79691601049865v337.6353346456693" style="stroke: rgb(0, 0, 0); stroke-opacity: 0.1; stroke-width: 0.5px;"/><path class="xgrid crisp" transform="translate(247.6730365995917,0)" d="M0,82.79691601049865v337.6353346456693" style="stroke: rgb(0, 0, 0); stroke-opacity: 0.1; stroke-width: 0.5px;"/><path class="xgrid crisp" transform="translate(334.23303659959174,0)" d="M0,82.79691601049865v337.6353346456693" style="stroke: rgb(0, 0, 0); stroke-opacity: 0.1; stroke-width: 0.5px;"/><path class="xgrid crisp" transform="translate(420.7830365995917,0)" d="M0,82.79691601049865v337.6353346456693" style="stroke: rgb(0, 0, 0); stroke-opacity: 0.1; stroke-width: 0.5px;"/><path class="xgrid crisp" transform="translate(507.34303659959176,0)" d="M0,82.79691601049865v337.6353346456693" style="stroke: rgb(0, 0, 0); stroke-opacity: 0.1; stroke-width: 0.5px;"/></g><g class="y"><path class="ygrid crisp" transform="translate(0,418.3869160104986)" d="M104.85303659959172,0h458.75457494896466" style="stroke: rgb(0, 0, 0); stroke-opacity: 0.1; stroke-width: 0.5px;"/><path class="ygrid crisp" transform="translate(0,346.97691601049866)" d="M104.85303659959172,0h458.75457494896466" style="stroke: rgb(0, 0, 0); stroke-opacity: 0.1; stroke-width: 0.5px;"/><path class="ygrid crisp" transform="translate(0,275.56691601049863)" d="M104.85303659959172,0h458.75457494896466" style="stroke: rgb(0, 0, 0); stroke-opacity: 0.1; stroke-width: 0.5px;"/><path class="ygrid crisp" transform="translate(0,204.15691601049866)" d="M104.85303659959172,0h458.75457494896466" style="stroke: rgb(0, 0, 0); stroke-opacity: 0.1; stroke-width: 0.5px;"/><path class="ygrid crisp" transform="translate(0,132.74691601049864)" d="M104.85303659959172,0h458.75457494896466" style="stroke: rgb(0, 0, 0); stroke-opacity: 0.1; stroke-width: 0.5px;"/></g></g><g class="zerolinelayer"/><path class="xlines-below"/><path class="ylines-below"/><g class="overlines-below"/><g class="xaxislayer-below"/><g class="yaxislayer-below"/><g class="overaxes-below"/><g class="plot" transform="translate(104.85303659959172,82.79691601049865)" clip-path="url('#clip0b0e27xyplot')"><g class="scatterlayer mlayer"><g class="trace scatter trace69d606" style="stroke-miterlimit: 2;"><g class="fills"><g><path class="js-fill" d="M12.98,-92.88L12.98,-92.88L12.98,120.92L99.54,310.11L186.1,327.05L272.66,322.38L359.21,325.02L445.77,326.42L445.77,120.05L272.66,119.48L186.1,120.86L99.54,118.2L12.98,24.66" style="fill: rgb(0, 154, 250); fill-opacity: 0.5; stroke-width: 0;"/></g></g><g class="errorbars"/><g class="lines"><path class="js-line" d="M12.98,120.92L99.54,310.11L186.1,327.05L272.66,322.38L359.21,325.02L445.77,326.42L445.77,120.05L272.66,119.48L186.1,120.86L99.54,118.2L12.98,24.66" style="vector-effect: non-scaling-stroke; fill: none; stroke: rgb(0, 154, 250); stroke-opacity: 1; stroke-width: 0px; opacity: 1;"/></g><g class="points"/><g class="text"/></g><g class="trace scatter tracee8999b" style="stroke-miterlimit: 2; opacity: 1;"><g class="fills"/><g class="errorbars"/><g class="lines"><path class="js-line" d="M12.98,62.26L99.54,268.13L186.1,276.77L272.66,284.03L359.21,284.08L445.77,283.59" style="vector-effect: non-scaling-stroke; fill: none; stroke: rgb(0, 154, 250); stroke-opacity: 1; stroke-width: 1px; opacity: 1;"/></g><g class="points"/><g class="text"/></g><g class="trace scatter trace3120dc" style="stroke-miterlimit: 2;"><g class="fills"><g><path class="js-fill" d="M12.98,-92.88L12.98,-92.88L12.98,120.92L99.54,288.26L186.1,307.63L272.66,289.13L359.21,289.59L445.77,291.45L445.77,122.75L272.66,122.49L186.1,122.41L99.54,116.7L12.98,24.66" style="fill: rgb(227, 111, 71); fill-opacity: 0.5; stroke-width: 0;"/></g></g><g class="errorbars"/><g class="lines"><path class="js-line" d="M12.98,120.92L99.54,288.26L186.1,307.63L272.66,289.13L359.21,289.59L445.77,291.45L445.77,122.75L272.66,122.49L186.1,122.41L99.54,116.7L12.98,24.66" style="vector-effect: non-scaling-stroke; fill: none; stroke: rgb(227, 111, 71); stroke-opacity: 1; stroke-width: 0px; opacity: 1;"/></g><g class="points"/><g class="text"/></g><g class="trace scatter tracee0a232" style="stroke-miterlimit: 2; opacity: 1;"><g class="fills"/><g class="errorbars"/><g class="lines"><path class="js-line" d="M12.98,62.26L99.54,247.16L186.1,258.73L272.66,250.92L359.21,250.8L445.77,251.39" style="vector-effect: non-scaling-stroke; fill: none; stroke: rgb(227, 111, 71); stroke-opacity: 1; stroke-width: 1px; opacity: 1;"/></g><g class="points"/><g class="text"/></g><g class="trace scatter trace4b1683" style="stroke-miterlimit: 2;"><g class="fills"><g><path class="js-fill" d="M12.98,-92.88L12.98,-92.88L12.98,120.92L99.54,238.4L186.1,288.16L272.66,297.61L359.21,299.75L445.77,296.65L445.77,121.89L359.21,122.98L272.66,125.14L186.1,130.61L99.54,118.44L12.98,24.66" style="fill: rgb(62, 164, 78); fill-opacity: 0.5; stroke-width: 0;"/></g></g><g class="errorbars"/><g class="lines"><path class="js-line" d="M12.98,120.92L99.54,238.4L186.1,288.16L272.66,297.61L359.21,299.75L445.77,296.65L445.77,121.89L359.21,122.98L272.66,125.14L186.1,130.61L99.54,118.44L12.98,24.66" style="vector-effect: non-scaling-stroke; fill: none; stroke: rgb(62, 164, 78); stroke-opacity: 1; stroke-width: 0px; opacity: 1;"/></g><g class="points"/><g class="text"/></g><g class="trace scatter traceb79616" style="stroke-miterlimit: 2; opacity: 1;"><g class="fills"/><g class="errorbars"/><g class="lines"><path class="js-line" d="M12.98,62.26L99.54,215.82L186.1,279.29L272.66,301.85L359.21,295.92L445.77,292.26" style="vector-effect: non-scaling-stroke; fill: none; stroke: rgb(62, 164, 78); stroke-opacity: 1; stroke-width: 1px; opacity: 1;"/></g><g class="points"/><g class="text"/></g><g class="trace scatter tracea456ac" style="stroke-miterlimit: 2;"><g class="fills"><g><path class="js-fill" d="M12.98,-92.88L12.98,-92.88L12.98,44.66L99.54,141.64L186.1,258.14L272.66,299.56L359.21,320.76L445.77,328.08L445.77,120.7L359.21,119.1L272.66,119.66L186.1,127.42L99.54,79.48L12.98,9.56" style="fill: rgb(195, 113, 210); fill-opacity: 0.5; stroke-width: 0;"/></g></g><g class="errorbars"/><g class="lines"><path class="js-line" d="M12.98,44.66L99.54,141.64L186.1,258.14L272.66,299.56L359.21,320.76L445.77,328.08L445.77,120.7L359.21,119.1L272.66,119.66L186.1,127.42L99.54,79.48L12.98,9.56" style="vector-effect: non-scaling-stroke; fill: none; stroke: rgb(195, 113, 210); stroke-opacity: 1; stroke-width: 0px; opacity: 1;"/></g><g class="points"/><g class="text"/></g><g class="trace scatter tracecfc014" style="stroke-miterlimit: 2; opacity: 1;"><g class="fills"/><g class="errorbars"/><g class="lines"><path class="js-line" d="M12.98,26.94L99.54,110.21L186.1,210.58L272.66,254.34L359.21,249.01L445.77,254.47" style="vector-effect: non-scaling-stroke; fill: none; stroke: rgb(195, 113, 210); stroke-opacity: 1; stroke-width: 1px; opacity: 1;"/></g><g class="points"/><g class="text"/></g></g></g><g class="overplot"/><path class="xlines-above crisp" d="M103.85303659959172,420.9322506561679H563.6076115485564" style="fill: none; stroke-width: 1px; stroke: rgb(0, 0, 0); stroke-opacity: 1;"/><path class="ylines-above crisp" d="M104.35303659959172,82.79691601049865V420.4322506561679" style="fill: none; stroke-width: 1px; stroke: rgb(0, 0, 0); stroke-opacity: 1;"/><g class="overlines-above"/><g class="xaxislayer-above"><path class="xtick ticks crisp" d="M0,420.4322506561679v-5" transform="translate(161.1130365995917,0)" style="stroke: rgb(0, 0, 0); stroke-opacity: 1; stroke-width: 1px;"/><path class="xtick ticks crisp" d="M0,420.4322506561679v-5" transform="translate(247.6730365995917,0)" style="stroke: rgb(0, 0, 0); stroke-opacity: 1; stroke-width: 1px;"/><path class="xtick ticks crisp" d="M0,420.4322506561679v-5" transform="translate(334.23303659959174,0)" style="stroke: rgb(0, 0, 0); stroke-opacity: 1; stroke-width: 1px;"/><path class="xtick ticks crisp" d="M0,420.4322506561679v-5" transform="translate(420.7830365995917,0)" style="stroke: rgb(0, 0, 0); stroke-opacity: 1; stroke-width: 1px;"/><path class="xtick ticks crisp" d="M0,420.4322506561679v-5" transform="translate(507.34303659959176,0)" style="stroke: rgb(0, 0, 0); stroke-opacity: 1; stroke-width: 1px;"/><g class="xtick"><text text-anchor="middle" x="0" y="434.6322506561679" transform="translate(161.1130365995917,0)" style="font-family: sans-serif; font-size: 11px; fill: rgb(0, 0, 0); fill-opacity: 1; white-space: pre;">2</text></g><g class="xtick"><text text-anchor="middle" x="0" y="434.6322506561679" transform="translate(247.6730365995917,0)" style="font-family: sans-serif; font-size: 11px; fill: rgb(0, 0, 0); fill-opacity: 1; white-space: pre;">4</text></g><g class="xtick"><text text-anchor="middle" x="0" y="434.6322506561679" transform="translate(334.23303659959174,0)" style="font-family: sans-serif; font-size: 11px; fill: rgb(0, 0, 0); fill-opacity: 1; white-space: pre;">6</text></g><g class="xtick"><text text-anchor="middle" x="0" y="434.6322506561679" transform="translate(420.7830365995917,0)" style="font-family: sans-serif; font-size: 11px; fill: rgb(0, 0, 0); fill-opacity: 1; white-space: pre;">8</text></g><g class="xtick"><text text-anchor="middle" x="0" y="434.6322506561679" transform="translate(507.34303659959176,0)" style="font-family: sans-serif; font-size: 11px; fill: rgb(0, 0, 0); fill-opacity: 1; white-space: pre;">10</text></g></g><g class="yaxislayer-above"><path class="ytick ticks crisp" d="M104.85303659959172,0h5" transform="translate(0,418.3869160104986)" style="stroke: rgb(0, 0, 0); stroke-opacity: 1; stroke-width: 1px;"/><path class="ytick ticks crisp" d="M104.85303659959172,0h5" transform="translate(0,346.97691601049866)" style="stroke: rgb(0, 0, 0); stroke-opacity: 1; stroke-width: 1px;"/><path class="ytick ticks crisp" d="M104.85303659959172,0h5" transform="translate(0,275.56691601049863)" style="stroke: rgb(0, 0, 0); stroke-opacity: 1; stroke-width: 1px;"/><path class="ytick ticks crisp" d="M104.85303659959172,0h5" transform="translate(0,204.15691601049866)" style="stroke: rgb(0, 0, 0); stroke-opacity: 1; stroke-width: 1px;"/><path class="ytick ticks crisp" d="M104.85303659959172,0h5" transform="translate(0,132.74691601049864)" style="stroke: rgb(0, 0, 0); stroke-opacity: 1; stroke-width: 1px;"/><g class="ytick"><text text-anchor="end" x="101.65303659959172" y="3.8499999999999996" transform="translate(0,418.3869160104986)" style="font-family: sans-serif; font-size: 11px; fill: rgb(0, 0, 0); fill-opacity: 1; white-space: pre;">-1.50</text></g><g class="ytick"><text text-anchor="end" x="101.65303659959172" y="3.8499999999999996" transform="translate(0,346.97691601049866)" style="font-family: sans-serif; font-size: 11px; fill: rgb(0, 0, 0); fill-opacity: 1; white-space: pre;">-1.25</text></g><g class="ytick"><text text-anchor="end" x="101.65303659959172" y="3.8499999999999996" transform="translate(0,275.56691601049863)" style="font-family: sans-serif; font-size: 11px; fill: rgb(0, 0, 0); fill-opacity: 1; white-space: pre;">-1.00</text></g><g class="ytick"><text text-anchor="end" x="101.65303659959172" y="3.8499999999999996" transform="translate(0,204.15691601049866)" style="font-family: sans-serif; font-size: 11px; fill: rgb(0, 0, 0); fill-opacity: 1; white-space: pre;">-0.75</text></g><g class="ytick"><text text-anchor="end" x="101.65303659959172" y="3.8499999999999996" transform="translate(0,132.74691601049864)" style="font-family: sans-serif; font-size: 11px; fill: rgb(0, 0, 0); fill-opacity: 1; white-space: pre;">-0.50</text></g></g><g class="overaxes-above"/></g></g><g class="polarlayer"/><g class="ternarylayer"/><g class="geolayer"/><g class="funnelarealayer"/><g class="pielayer"/><g class="treemaplayer"/><g class="sunburstlayer"/><g class="glimages"/><defs id="topdefs-0b0e27"><g class="clips"/><clipPath id="legend0b0e27"><rect width="93" height="86" x="1" y="1"/></clipPath></defs><g class="layer-above"><g class="imagelayer"/><g class="shapelayer"/></g><g class="infolayer"><g class="legend" pointer-events="all" transform="translate(592.85,60)"><rect class="bg" shape-rendering="crispEdges" width="94" height="87" x="0.5" y="0.5" style="stroke: rgb(0, 0, 0); stroke-opacity: 1; fill: rgb(255, 255, 255); fill-opacity: 1; stroke-width: 1px;"/><g class="scrollbox" transform="" clip-path="url('#legend0b0e27')"><g class="groups"><g class="traces" transform="translate(1,15.5)" style="opacity: 1;"><text class="legendtext" text-anchor="start" x="40" y="4.29" style="font-family: sans-serif; font-size: 11px; fill: rgb(0, 0, 0); fill-opacity: 1; white-space: pre;">dg</text><g class="layers" style="opacity: 1;"><g class="legendfill"/><g class="legendlines"><path class="js-line" d="M5,0h30" style="fill: none; stroke: rgb(0, 154, 250); stroke-opacity: 1; stroke-width: 1px;"/></g><g class="legendsymbols"><g class="legendpoints"/></g></g><rect class="legendtoggle" x="0" y="-9.5" width="87.84375" height="19" style="fill: rgb(0, 0, 0); fill-opacity: 0;"/></g><g class="traces" transform="translate(1,34.5)" style="opacity: 1;"><text class="legendtext" text-anchor="start" x="40" y="4.29" style="font-family: sans-serif; font-size: 11px; fill: rgb(0, 0, 0); fill-opacity: 1; white-space: pre;">dg_limiter</text><g class="layers" style="opacity: 1;"><g class="legendfill"/><g class="legendlines"><path class="js-line" d="M5,0h30" style="fill: none; stroke: rgb(227, 111, 71); stroke-opacity: 1; stroke-width: 1px;"/></g><g class="legendsymbols"><g class="legendpoints"/></g></g><rect class="legendtoggle" x="0" y="-9.5" width="87.84375" height="19" style="fill: rgb(0, 0, 0); fill-opacity: 0;"/></g><g class="traces" transform="translate(1,53.5)" style="opacity: 1;"><text class="legendtext" text-anchor="start" x="40" y="4.29" style="font-family: sans-serif; font-size: 11px; fill: rgb(0, 0, 0); fill-opacity: 1; white-space: pre;">order1</text><g class="layers" style="opacity: 1;"><g class="legendfill"/><g class="legendlines"><path class="js-line" d="M5,0h30" style="fill: none; stroke: rgb(62, 164, 78); stroke-opacity: 1; stroke-width: 1px;"/></g><g class="legendsymbols"><g class="legendpoints"/></g></g><rect class="legendtoggle" x="0" y="-9.5" width="87.84375" height="19" style="fill: rgb(0, 0, 0); fill-opacity: 0;"/></g><g class="traces" transform="translate(1,72.5)" style="opacity: 1;"><text class="legendtext" text-anchor="start" x="40" y="4.29" style="font-family: sans-serif; font-size: 11px; fill: rgb(0, 0, 0); fill-opacity: 1; white-space: pre;">qbdrap</text><g class="layers" style="opacity: 1;"><g class="legendfill"/><g class="legendlines"><path class="js-line" d="M5,0h30" style="fill: none; stroke: rgb(195, 113, 210); stroke-opacity: 1; stroke-width: 1px;"/></g><g class="legendsymbols"><g class="legendpoints"/></g></g><rect class="legendtoggle" x="0" y="-9.5" width="87.84375" height="19" style="fill: rgb(0, 0, 0); fill-opacity: 0;"/></g></g></g><rect class="scrollbar" rx="20" ry="3" width="0" height="0" x="0" y="0" style="fill: rgb(128, 139, 164); fill-opacity: 1;"/></g><g class="g-gtitle"/><g class="g-xtitle"><text class="xtitle" x="334.230324074074" y="462.140625" text-anchor="middle" style="font-family: sans-serif; font-size: 15px; fill: rgb(0, 0, 0); opacity: 1; font-weight: normal; white-space: pre;">Order</text></g><g class="g-ytitle"><text class="ytitle" transform="rotate(-90,51.078125,251.6145833333333)" x="51.078125" y="251.6145833333333" text-anchor="middle" style="font-family: sans-serif; font-size: 15px; fill: rgb(0, 0, 0); opacity: 1; font-weight: normal; white-space: pre;">log₁₀ Error</text></g><g class="annotation" data-index="0" style="opacity: 1;"><g class="annotation-text-g" transform="rotate(0,334.2303240740741,73.00000000000001)"><g class="cursor-pointer" transform="translate(109,60)"><rect class="bg" x="0.5" y="0.5" width="450" height="25" style="stroke-width: 1px; stroke: rgb(0, 0, 0); stroke-opacity: 0; fill: rgb(0, 0, 0); fill-opacity: 0;"/><text class="annotation-text" text-anchor="middle" x="225.453125" y="20" style="font-family: sans-serif; font-size: 20px; fill: rgb(0, 0, 0); fill-opacity: 1; white-space: pre;">L¹ error between the true CDF and approximations</text></g></g></g></g></svg>