<svg class="main-svg" xmlns="http://www.w3.org/2000/svg" xmlns:xlink="http://www.w3.org/1999/xlink" width="700" height="500" style="" viewBox="0 0 700 500"><rect x="0" y="0" width="700" height="500" style="fill: rgb(255, 255, 255); fill-opacity: 1;"/><defs id="defs-a58ea8"><g class="clips"><clipPath id="clipa58ea8xyplot" class="plotclip"><rect width="472.7289151356081" height="337.6353346456693"/></clipPath><clipPath class="axesclip" id="clipa58ea8x"><rect x="97.83276465441818" y="0" width="472.7289151356081" height="500"/></clipPath><clipPath class="axesclip" id="clipa58ea8y"><rect x="0" y="82.79691601049865" width="700" height="337.6353346456693"/></clipPath><clipPath class="axesclip" id="clipa58ea8xy"><rect x="97.83276465441818" y="82.79691601049865" width="472.7289151356081" height="337.6353346456693"/></clipPath></g><g class="gradients"/></defs><g class="bglayer"/><g class="layer-below"><g class="imagelayer"/><g class="shapelayer"/></g><g class="cartesianlayer"><g class="subplot xy"><g class="layer-subplot"><g class="shapelayer"/><g class="imagelayer"/></g><g class="gridlayer"><g class="x"><path class="xgrid crisp" transform="translate(111.21276465441818,0)" d="M0,82.79691601049865v337.6353346456693" style="stroke: rgb(0, 0, 0); stroke-opacity: 0.1; stroke-width: 0.5px;"/><path class="xgrid crisp" transform="translate(185.5427646544182,0)" d="M0,82.79691601049865v337.6353346456693" style="stroke: rgb(0, 0, 0); stroke-opacity: 0.1; stroke-width: 0.5px;"/><path class="xgrid crisp" transform="translate(259.8727646544182,0)" d="M0,82.79691601049865v337.6353346456693" style="stroke: rgb(0, 0, 0); stroke-opacity: 0.1; stroke-width: 0.5px;"/><path class="xgrid crisp" transform="translate(334.19276465441817,0)" d="M0,82.79691601049865v337.6353346456693" style="stroke: rgb(0, 0, 0); stroke-opacity: 0.1; stroke-width: 0.5px;"/><path class="xgrid crisp" transform="translate(408.5227646544182,0)" d="M0,82.79691601049865v337.6353346456693" style="stroke: rgb(0, 0, 0); stroke-opacity: 0.1; stroke-width: 0.5px;"/><path class="xgrid crisp" transform="translate(482.85276465441814,0)" d="M0,82.79691601049865v337.6353346456693" style="stroke: rgb(0, 0, 0); stroke-opacity: 0.1; stroke-width: 0.5px;"/><path class="xgrid crisp" transform="translate(557.1827646544182,0)" d="M0,82.79691601049865v337.6353346456693" style="stroke: rgb(0, 0, 0); stroke-opacity: 0.1; stroke-width: 0.5px;"/></g><g class="y"><path class="ygrid crisp" transform="translate(0,361.64691601049867)" d="M97.83276465441818,0h472.7289151356081" style="stroke: rgb(0, 0, 0); stroke-opacity: 0.1; stroke-width: 0.5px;"/><path class="ygrid crisp" transform="translate(0,289.66691601049865)" d="M97.83276465441818,0h472.7289151356081" style="stroke: rgb(0, 0, 0); stroke-opacity: 0.1; stroke-width: 0.5px;"/><path class="ygrid crisp" transform="translate(0,217.67691601049864)" d="M97.83276465441818,0h472.7289151356081" style="stroke: rgb(0, 0, 0); stroke-opacity: 0.1; stroke-width: 0.5px;"/><path class="ygrid crisp" transform="translate(0,145.69691601049865)" d="M97.83276465441818,0h472.7289151356081" style="stroke: rgb(0, 0, 0); stroke-opacity: 0.1; stroke-width: 0.5px;"/></g></g><g class="zerolinelayer"/><path class="xlines-below"/><path class="ylines-below"/><g class="overlines-below"/><g class="xaxislayer-below"/><g class="yaxislayer-below"/><g class="overaxes-below"/><g class="plot" transform="translate(97.83276465441818,82.79691601049865)" clip-path="url('#clipa58ea8xyplot')"><g class="scatterlayer mlayer"><g class="trace scatter tracee7412c" style="stroke-miterlimit: 2;"><g class="fills"><g><path class="js-fill" d="M13.38,-153.06L13.38,-153.06L13.38,100.08L162.04,328.08L310.69,317.36L459.35,318.5L459.35,100.27L310.69,100.12L162.04,102.59L13.38,50.62" style="fill: rgb(0, 154, 250); fill-opacity: 0.5; stroke-width: 0;"/></g></g><g class="errorbars"/><g class="lines"><path class="js-line" d="M13.38,100.08L162.04,328.08L310.69,317.36L459.35,318.5L459.35,100.27L310.69,100.12L162.04,102.59L13.38,50.62" style="vector-effect: non-scaling-stroke; fill: none; stroke: rgb(0, 154, 250); stroke-opacity: 1; stroke-width: 0px; opacity: 1;"/></g><g class="points"/><g class="text"/></g><g class="trace scatter trace69f51a" style="stroke-miterlimit: 2; opacity: 1;"><g class="fills"/><g class="errorbars"/><g class="lines"><path class="js-line" d="M13.38,89.04L162.04,306.65L310.69,309.37L459.35,309.08" style="vector-effect: non-scaling-stroke; fill: none; stroke: rgb(0, 154, 250); stroke-opacity: 1; stroke-width: 1px; opacity: 1;"/></g><g class="points"/><g class="text"/></g><g class="trace scatter trace1e06ef" style="stroke-miterlimit: 2;"><g class="fills"><g><path class="js-fill" d="M13.38,-153.06L13.38,-153.06L13.38,100.08L162.04,239.04L310.69,229.11L459.35,222.64L459.35,106.54L310.69,109.52L162.04,109.38L13.38,50.62" style="fill: rgb(227, 111, 71); fill-opacity: 0.5; stroke-width: 0;"/></g></g><g class="errorbars"/><g class="lines"><path class="js-line" d="M13.38,100.08L162.04,239.04L310.69,229.11L459.35,222.64L459.35,106.54L310.69,109.52L162.04,109.38L13.38,50.62" style="vector-effect: non-scaling-stroke; fill: none; stroke: rgb(227, 111, 71); stroke-opacity: 1; stroke-width: 0px; opacity: 1;"/></g><g class="points"/><g class="text"/></g><g class="trace scatter tracefb3526" style="stroke-miterlimit: 2; opacity: 1;"><g class="fills"/><g class="errorbars"/><g class="lines"><path class="js-line" d="M13.38,89.04L162.04,220.64L310.69,212.35L459.35,205.56" style="vector-effect: non-scaling-stroke; fill: none; stroke: rgb(227, 111, 71); stroke-opacity: 1; stroke-width: 1px; opacity: 1;"/></g><g class="points"/><g class="text"/></g><g class="trace scatter trace733f54" style="stroke-miterlimit: 2;"><g class="fills"><g><path class="js-fill" d="M13.38,-153.06L13.38,-153.06L13.38,100.08L162.04,238.48L310.69,291.77L459.35,310.72L459.35,112.91L310.69,108.22L162.04,96.93L13.38,50.62" style="fill: rgb(62, 164, 78); fill-opacity: 0.5; stroke-width: 0;"/></g></g><g class="errorbars"/><g class="lines"><path class="js-line" d="M13.38,100.08L162.04,238.48L310.69,291.77L459.35,310.72L459.35,112.91L310.69,108.22L162.04,96.93L13.38,50.62" style="vector-effect: non-scaling-stroke; fill: none; stroke: rgb(62, 164, 78); stroke-opacity: 1; stroke-width: 0px; opacity: 1;"/></g><g class="points"/><g class="text"/></g><g class="trace scatter traced2b7b2" style="stroke-miterlimit: 2; opacity: 1;"><g class="fills"/><g class="errorbars"/><g class="lines"><path class="js-line" d="M13.38,89.04L162.04,213.56L310.69,256.05L459.35,276.17" style="vector-effect: non-scaling-stroke; fill: none; stroke: rgb(62, 164, 78); stroke-opacity: 1; stroke-width: 1px; opacity: 1;"/></g><g class="points"/><g class="text"/></g><g class="trace scatter tracea1d3e6" style="stroke-miterlimit: 2;"><g class="fills"><g><path class="js-fill" d="M13.38,-153.06L13.38,-153.06L13.38,60.04L162.04,215.83L310.69,300.81L459.35,321.68L459.35,103.31L310.69,101.74L162.04,83.72L13.38,9.56" style="fill: rgb(195, 113, 210); fill-opacity: 0.5; stroke-width: 0;"/></g></g><g class="errorbars"/><g class="lines"><path class="js-line" d="M13.38,60.04L162.04,215.83L310.69,300.81L459.35,321.68L459.35,103.31L310.69,101.74L162.04,83.72L13.38,9.56" style="vector-effect: non-scaling-stroke; fill: none; stroke: rgb(195, 113, 210); stroke-opacity: 1; stroke-width: 0px; opacity: 1;"/></g><g class="points"/><g class="text"/></g><g class="trace scatter traceb6b2b9" style="stroke-miterlimit: 2; opacity: 1;"><g class="fills"/><g class="errorbars"/><g class="lines"><path class="js-line" d="M13.38,33.85L162.04,186.61L310.69,267.71L459.35,304.52" style="vector-effect: non-scaling-stroke; fill: none; stroke: rgb(195, 113, 210); stroke-opacity: 1; stroke-width: 1px; opacity: 1;"/></g><g class="points"/><g class="text"/></g></g></g><g class="overplot"/><path class="xlines-above crisp" d="M96.83276465441818,420.9322506561679H570.5616797900262" style="fill: none; stroke-width: 1px; stroke: rgb(0, 0, 0); stroke-opacity: 1;"/><path class="ylines-above crisp" d="M97.33276465441818,82.79691601049865V420.4322506561679" style="fill: none; stroke-width: 1px; stroke: rgb(0, 0, 0); stroke-opacity: 1;"/><g class="overlines-above"/><g class="xaxislayer-above"><path class="xtick ticks crisp" d="M0,420.4322506561679v-5" transform="translate(111.21276465441818,0)" style="stroke: rgb(0, 0, 0); stroke-opacity: 1; stroke-width: 1px;"/><path class="xtick ticks crisp" d="M0,420.4322506561679v-5" transform="translate(185.5427646544182,0)" style="stroke: rgb(0, 0, 0); stroke-opacity: 1; stroke-width: 1px;"/><path class="xtick ticks crisp" d="M0,420.4322506561679v-5" transform="translate(259.8727646544182,0)" style="stroke: rgb(0, 0, 0); stroke-opacity: 1; stroke-width: 1px;"/><path class="xtick ticks crisp" d="M0,420.4322506561679v-5" transform="translate(334.19276465441817,0)" style="stroke: rgb(0, 0, 0); stroke-opacity: 1; stroke-width: 1px;"/><path class="xtick ticks crisp" d="M0,420.4322506561679v-5" transform="translate(408.5227646544182,0)" style="stroke: rgb(0, 0, 0); stroke-opacity: 1; stroke-width: 1px;"/><path class="xtick ticks crisp" d="M0,420.4322506561679v-5" transform="translate(482.85276465441814,0)" style="stroke: rgb(0, 0, 0); stroke-opacity: 1; stroke-width: 1px;"/><path class="xtick ticks crisp" d="M0,420.4322506561679v-5" transform="translate(557.1827646544182,0)" style="stroke: rgb(0, 0, 0); stroke-opacity: 1; stroke-width: 1px;"/><g class="xtick"><text text-anchor="middle" x="0" y="434.6322506561679" transform="translate(111.21276465441818,0)" style="font-family: sans-serif; font-size: 11px; fill: rgb(0, 0, 0); fill-opacity: 1; white-space: pre;">1</text></g><g class="xtick"><text text-anchor="middle" x="0" y="434.6322506561679" transform="translate(185.5427646544182,0)" style="font-family: sans-serif; font-size: 11px; fill: rgb(0, 0, 0); fill-opacity: 1; white-space: pre;">2</text></g><g class="xtick"><text text-anchor="middle" x="0" y="434.6322506561679" transform="translate(259.8727646544182,0)" style="font-family: sans-serif; font-size: 11px; fill: rgb(0, 0, 0); fill-opacity: 1; white-space: pre;">3</text></g><g class="xtick"><text text-anchor="middle" x="0" y="434.6322506561679" transform="translate(334.19276465441817,0)" style="font-family: sans-serif; font-size: 11px; fill: rgb(0, 0, 0); fill-opacity: 1; white-space: pre;">4</text></g><g class="xtick"><text text-anchor="middle" x="0" y="434.6322506561679" transform="translate(408.5227646544182,0)" style="font-family: sans-serif; font-size: 11px; fill: rgb(0, 0, 0); fill-opacity: 1; white-space: pre;">5</text></g><g class="xtick"><text text-anchor="middle" x="0" y="434.6322506561679" transform="translate(482.85276465441814,0)" style="font-family: sans-serif; font-size: 11px; fill: rgb(0, 0, 0); fill-opacity: 1; white-space: pre;">6</text></g><g class="xtick"><text text-anchor="middle" x="0" y="434.6322506561679" transform="translate(557.1827646544182,0)" style="font-family: sans-serif; font-size: 11px; fill: rgb(0, 0, 0); fill-opacity: 1; white-space: pre;">7</text></g></g><g class="yaxislayer-above"><path class="ytick ticks crisp" d="M97.83276465441818,0h5" transform="translate(0,361.64691601049867)" style="stroke: rgb(0, 0, 0); stroke-opacity: 1; stroke-width: 1px;"/><path class="ytick ticks crisp" d="M97.83276465441818,0h5" transform="translate(0,289.66691601049865)" style="stroke: rgb(0, 0, 0); stroke-opacity: 1; stroke-width: 1px;"/><path class="ytick ticks crisp" d="M97.83276465441818,0h5" transform="translate(0,217.67691601049864)" style="stroke: rgb(0, 0, 0); stroke-opacity: 1; stroke-width: 1px;"/><path class="ytick ticks crisp" d="M97.83276465441818,0h5" transform="translate(0,145.69691601049865)" style="stroke: rgb(0, 0, 0); stroke-opacity: 1; stroke-width: 1px;"/><g class="ytick"><text text-anchor="end" x="94.63276465441818" y="3.8499999999999996" transform="translate(0,361.64691601049867)" style="font-family: sans-serif; font-size: 11px; fill: rgb(0, 0, 0); fill-opacity: 1; white-space: pre;">-1.2</text></g><g class="ytick"><text text-anchor="end" x="94.63276465441818" y="3.8499999999999996" transform="translate(0,289.66691601049865)" style="font-family: sans-serif; font-size: 11px; fill: rgb(0, 0, 0); fill-opacity: 1; white-space: pre;">-1.0</text></g><g class="ytick"><text text-anchor="end" x="94.63276465441818" y="3.8499999999999996" transform="translate(0,217.67691601049864)" style="font-family: sans-serif; font-size: 11px; fill: rgb(0, 0, 0); fill-opacity: 1; white-space: pre;">-0.8</text></g><g class="ytick"><text text-anchor="end" x="94.63276465441818" y="3.8499999999999996" transform="translate(0,145.69691601049865)" style="font-family: sans-serif; font-size: 11px; fill: rgb(0, 0, 0); fill-opacity: 1; white-space: pre;">-0.6</text></g></g><g class="overaxes-above"/></g></g><g class="polarlayer"/><g class="ternarylayer"/><g class="geolayer"/><g class="funnelarealayer"/><g class="pielayer"/><g class="treemaplayer"/><g class="sunburstlayer"/><g class="glimages"/><defs id="topdefs-a58ea8"><g class="clips"/><clipPath id="legenda58ea8"><rect width="86" height="86" x="1" y="1"/></clipPath></defs><g class="layer-above"><g class="imagelayer"/><g class="shapelayer"/></g><g class="infolayer"><g class="legend" pointer-events="all" transform="translate(600.2,60)"><rect class="bg" shape-rendering="crispEdges" width="87" height="87" x="0.5" y="0.5" style="stroke: rgb(0, 0, 0); stroke-opacity: 1; fill: rgb(255, 255, 255); fill-opacity: 1; stroke-width: 1px;"/><g class="scrollbox" transform="" clip-path="url('#legenda58ea8')"><g class="groups"><g class="traces" transform="translate(1,15.5)" style="opacity: 1;"><text class="legendtext" text-anchor="start" x="40" y="4.29" style="font-family: sans-serif; font-size: 11px; fill: rgb(0, 0, 0); fill-opacity: 1; white-space: pre;">dg1</text><g class="layers" style="opacity: 1;"><g class="legendfill"/><g class="legendlines"><path class="js-line" d="M5,0h30" style="fill: none; stroke: rgb(0, 154, 250); stroke-opacity: 1; stroke-width: 1px;"/></g><g class="legendsymbols"><g class="legendpoints"/></g></g><rect class="legendtoggle" x="0" y="-9.5" width="80.375" height="19" style="fill: rgb(0, 0, 0); fill-opacity: 0;"/></g><g class="traces" transform="translate(1,34.5)" style="opacity: 1;"><text class="legendtext" text-anchor="start" x="40" y="4.29" style="font-family: sans-serif; font-size: 11px; fill: rgb(0, 0, 0); fill-opacity: 1; white-space: pre;">dg2</text><g class="layers" style="opacity: 1;"><g class="legendfill"/><g class="legendlines"><path class="js-line" d="M5,0h30" style="fill: none; stroke: rgb(227, 111, 71); stroke-opacity: 1; stroke-width: 1px;"/></g><g class="legendsymbols"><g class="legendpoints"/></g></g><rect class="legendtoggle" x="0" y="-9.5" width="80.375" height="19" style="fill: rgb(0, 0, 0); fill-opacity: 0;"/></g><g class="traces" transform="translate(1,53.5)" style="opacity: 1;"><text class="legendtext" text-anchor="start" x="40" y="4.29" style="font-family: sans-serif; font-size: 11px; fill: rgb(0, 0, 0); fill-opacity: 1; white-space: pre;">order13</text><g class="layers" style="opacity: 1;"><g class="legendfill"/><g class="legendlines"><path class="js-line" d="M5,0h30" style="fill: none; stroke: rgb(62, 164, 78); stroke-opacity: 1; stroke-width: 1px;"/></g><g class="legendsymbols"><g class="legendpoints"/></g></g><rect class="legendtoggle" x="0" y="-9.5" width="80.375" height="19" style="fill: rgb(0, 0, 0); fill-opacity: 0;"/></g><g class="traces" transform="translate(1,72.5)" style="opacity: 1;"><text class="legendtext" text-anchor="start" x="40" y="4.29" style="font-family: sans-serif; font-size: 11px; fill: rgb(0, 0, 0); fill-opacity: 1; white-space: pre;">qbdrap4</text><g class="layers" style="opacity: 1;"><g class="legendfill"/><g class="legendlines"><path class="js-line" d="M5,0h30" style="fill: none; stroke: rgb(195, 113, 210); stroke-opacity: 1; stroke-width: 1px;"/></g><g class="legendsymbols"><g class="legendpoints"/></g></g><rect class="legendtoggle" x="0" y="-9.5" width="80.375" height="19" style="fill: rgb(0, 0, 0); fill-opacity: 0;"/></g></g></g><rect class="scrollbar" rx="20" ry="3" width="0" height="0" x="0" y="0" style="fill: rgb(128, 139, 164); fill-opacity: 1;"/></g><g class="g-gtitle"/><g class="g-xtitle"><text class="xtitle" x="334.1972222222222" y="462.140625" text-anchor="middle" style="font-family: sans-serif; font-size: 15px; fill: rgb(0, 0, 0); opacity: 1; font-weight: normal; white-space: pre;">Order</text></g><g class="g-ytitle"><text class="ytitle" transform="rotate(-90,50.171875,251.6145833333333)" x="50.171875" y="251.6145833333333" text-anchor="middle" style="font-family: sans-serif; font-size: 15px; fill: rgb(0, 0, 0); opacity: 1; font-weight: normal; white-space: pre;">log₁₀ Error</text></g><g class="annotation" data-index="0" style="opacity: 1;"><g class="annotation-text-g" transform="rotate(0,334.1972222222222,73.00000000000001)"><g class="cursor-pointer" transform="translate(109,60)"><rect class="bg" x="0.5" y="0.5" width="450" height="25" style="stroke-width: 1px; stroke: rgb(0, 0, 0); stroke-opacity: 0; fill: rgb(0, 0, 0); fill-opacity: 0;"/><text class="annotation-text" text-anchor="middle" x="225.453125" y="20" style="font-family: sans-serif; font-size: 20px; fill: rgb(0, 0, 0); fill-opacity: 1; white-space: pre;">L¹ error between the true CDF and approximations</text></g></g></g></g></svg>